<mxfile host="app.diagrams.net" modified="2023-11-24T10:53:23.749Z" agent="Mozilla/5.0 (Windows NT 10.0; Win64; x64) AppleWebKit/537.36 (KHTML, like Gecko) Chrome/119.0.0.0 Safari/537.36" version="22.1.3" etag="xIWep4wqTZb9xGz3Jtgm" type="github">
  <diagram name="Seite-1" id="6tFBFPmUiKcA95HX5o9B">
    <mxGraphModel>
      <root>
        <mxCell id="0" />
        <mxCell id="1" parent="0" />
      </root>
    </mxGraphModel>
  </diagram>
</mxfile>
